<?xml version="1.0" encoding="utf-8"?>
<!-- Generator: Adobe Illustrator 27.2.0, SVG Export Plug-In . SVG Version: 6.00 Build 0)  -->
<svg version="1.1" id="レイヤー_1" xmlns="http://www.w3.org/2000/svg" xmlns:xlink="http://www.w3.org/1999/xlink" x="0px"
	 y="0px" viewBox="0 0 30 30" style="enable-background:new 0 0 30 30;" xml:space="preserve">
<style type="text/css">
	.st0{fill-rule:evenodd;clip-rule:evenodd;}
</style>
<g>
	<path class="st0" d="M-86.7,23.8V8.1h-0.1c-0.3,1.9-1.5,3.3-3,3.3s-2.7-1.4-3-3.3h-0.1v16.1h0c0.1,2.1,1.4,3.7,3.1,3.7
		c1.7,0,3.1-1.7,3.1-3.9C-86.7,24-86.7,23.9-86.7,23.8z"/>
	<ellipse cx="-89.8" cy="6.7" rx="3.1" ry="4.7"/>
</g>
<g>
	<path class="st0" d="M-77.2,23.8V8.1h-0.1c-0.3,1.9-1.5,3.3-3,3.3c-1.5,0-2.7-1.4-3-3.3h-0.1v16.1h0c0.1,2.1,1.4,3.7,3.1,3.7
		c1.7,0,3.1-1.7,3.1-3.9C-77.1,24-77.1,23.9-77.2,23.8z"/>
	<ellipse cx="-80.2" cy="6.7" rx="3.1" ry="4.7"/>
</g>
<g>
	<g>
		<path class="st0" d="M-40.2,23.1V8.7h-0.1c-0.3,1.7-1.4,3.1-2.8,3.1c-1.4,0-2.5-1.3-2.8-3.1h0v14.9h0c0.1,1.9,1.3,3.4,2.9,3.4
			c1.6,0,2.9-1.6,2.9-3.6C-40.1,23.3-40.1,23.2-40.2,23.1z"/>
		<ellipse cx="-43" cy="7.3" rx="2.9" ry="4.3"/>
	</g>
	<g>
		<path class="st0" d="M-32.2,23.1V8.7h-0.1c-0.3,1.7-1.4,3.1-2.8,3.1c-1.4,0-2.5-1.3-2.8-3.1h0v14.9h0c0.1,1.9,1.3,3.4,2.9,3.4
			c1.6,0,2.9-1.6,2.9-3.6C-32.1,23.3-32.1,23.2-32.2,23.1z"/>
		<ellipse cx="-35" cy="7.3" rx="2.9" ry="4.3"/>
	</g>
	<g>
		<path class="st0" d="M-24.2,23.1V8.7h-0.1c-0.3,1.7-1.4,3.1-2.8,3.1c-1.4,0-2.5-1.3-2.8-3.1h0v14.9h0c0.1,1.9,1.3,3.4,2.9,3.4
			c1.6,0,2.9-1.6,2.9-3.6C-24.1,23.3-24.1,23.2-24.2,23.1z"/>
		<ellipse cx="-27" cy="7.3" rx="2.9" ry="4.3"/>
	</g>
</g>
<g>
	<g>
		<path class="st0" d="M8.3,25V11H8.2c-0.3,1.7-1.5,3-3,3c-1.5,0-2.7-1.3-3-3H2.1v14.5h0c0.1,1.9,1.4,3.3,3.1,3.3
			c1.7,0,3.1-1.6,3.1-3.5C8.3,25.2,8.3,25.1,8.3,25z"/>
		<ellipse cx="5.2" cy="9.5" rx="3.1" ry="4.2"/>
	</g>
	<g>
		<path class="st0" d="M18.1,20.9v-14H18c-0.3,1.7-1.5,3-3,3c-1.5,0-2.7-1.3-3-3h-0.1v14.5h0c0.1,1.9,1.4,3.3,3.1,3.3
			c1.7,0,3.1-1.6,3.1-3.5C18.1,21.1,18.1,21,18.1,20.9z"/>
		<ellipse cx="15" cy="5.4" rx="3.1" ry="4.2"/>
	</g>
	<g>
		<path class="st0" d="M27.9,25V11h-0.1c-0.3,1.7-1.5,3-3,3c-1.5,0-2.7-1.3-3-3h-0.1v14.5h0c0.1,1.9,1.4,3.3,3.1,3.3
			c1.7,0,3.1-1.6,3.1-3.5C27.9,25.2,27.9,25.1,27.9,25z"/>
		<ellipse cx="24.8" cy="9.5" rx="3.1" ry="4.2"/>
	</g>
</g>
</svg>
