<?xml version="1.0" encoding="UTF-8"?><svg id="_レイヤー_1" xmlns="http://www.w3.org/2000/svg" viewBox="0 0 30 30"><defs><style>.cls-1{fill-rule:evenodd;}</style></defs><g><path class="cls-1" d="m9.99,24.91v-14.01h-.06c-.25,1.69-1.37,2.97-2.72,2.97s-2.47-1.28-2.72-2.97h-.05v14.47h.01c.06,1.85,1.28,3.33,2.77,3.33,1.53,0,2.77-1.56,2.77-3.47,0-.11,0-.22-.01-.33Z"/><ellipse cx="7.23" cy="9.58" rx="2.77" ry="4.18"/></g><g><path class="cls-1" d="m17.77,20.8V6.8h-.06c-.25,1.69-1.37,2.97-2.72,2.97s-2.47-1.28-2.72-2.97h-.05v14.47h.01c.06,1.85,1.28,3.33,2.77,3.33,1.53,0,2.77-1.56,2.77-3.47,0-.11,0-.22-.01-.33Z"/><ellipse cx="15" cy="5.47" rx="2.77" ry="4.18"/></g><g><path class="cls-1" d="m25.54,24.91v-14.01h-.06c-.25,1.69-1.37,2.97-2.72,2.97s-2.47-1.28-2.72-2.97h-.05v14.47h.01c.06,1.85,1.28,3.33,2.77,3.33,1.53,0,2.77-1.56,2.77-3.47,0-.11,0-.22-.01-.33Z"/><ellipse cx="22.77" cy="9.58" rx="2.77" ry="4.18"/></g></svg>