<?xml version="1.0" encoding="UTF-8"?><svg id="_レイヤー_1" xmlns="http://www.w3.org/2000/svg" viewBox="0 0 30 30"><defs><style>.cls-1{fill-rule:evenodd;}</style></defs><g><path class="cls-1" d="m9.85,23.09v-14.42h-.06c-.26,1.74-1.41,3.06-2.8,3.06s-2.54-1.31-2.8-3.06h-.05v14.9h.02c.06,1.91,1.31,3.43,2.85,3.43,1.58,0,2.85-1.6,2.85-3.58,0-.11,0-.23-.01-.34Z"/><ellipse cx="7" cy="7.3" rx="2.85" ry="4.3"/></g><g><path class="cls-1" d="m17.85,23.09v-14.42h-.06c-.26,1.74-1.41,3.06-2.8,3.06s-2.54-1.31-2.8-3.06h-.05v14.9h.02c.06,1.91,1.31,3.43,2.85,3.43,1.58,0,2.85-1.6,2.85-3.58,0-.11,0-.23-.01-.34Z"/><ellipse cx="15" cy="7.3" rx="2.85" ry="4.3"/></g><g><path class="cls-1" d="m25.85,23.09v-14.42h-.06c-.26,1.74-1.41,3.06-2.8,3.06s-2.54-1.31-2.8-3.06h-.05v14.9h.02c.06,1.91,1.31,3.43,2.85,3.43,1.58,0,2.85-1.6,2.85-3.58,0-.11,0-.23-.01-.34Z"/><ellipse cx="23" cy="7.3" rx="2.85" ry="4.3"/></g></svg>