<?xml version="1.0" encoding="UTF-8"?><svg id="_レイヤー_1" xmlns="http://www.w3.org/2000/svg" viewBox="0 0 30 30"><defs><style>.cls-1{fill-rule:evenodd;}</style></defs><g><path class="cls-1" d="m13.33,23.76v-15.62h-.07c-.28,1.89-1.53,3.31-3.03,3.31s-2.75-1.42-3.03-3.31h-.05v16.14h.02c.07,2.07,1.42,3.72,3.09,3.72,1.71,0,3.09-1.73,3.09-3.87,0-.12,0-.24-.01-.36Z"/><ellipse cx="10.24" cy="6.66" rx="3.09" ry="4.66"/></g><g><path class="cls-1" d="m22.84,23.76v-15.62h-.07c-.28,1.89-1.53,3.31-3.03,3.31s-2.75-1.42-3.03-3.31h-.05v16.14h.02c.07,2.07,1.42,3.72,3.09,3.72,1.71,0,3.09-1.73,3.09-3.87,0-.12,0-.24-.01-.36Z"/><ellipse cx="19.76" cy="6.66" rx="3.09" ry="4.66"/></g></svg>